name rise45.9887peak57.8056fall74.9286.mot
datacolumns 19
datarows 35
range 14.21828200000000 14.27494400000000
endheader
time	ground_force1_vx	ground_force1_vy	ground_force1_vz	ground_force1_px	ground_force1_py	ground_force1_pz	ground_force2_vx	ground_force2_vy	ground_force2_vz	ground_force2_px	ground_force2_py	ground_force2_pz	ground_torque1_x	ground_torque1_y	ground_torque1_z	ground_torque2_x	ground_torque2_y	ground_torque2_z	
14.21828200000000	-46.04231100000000	797.82754000000000	59.55377900000000	0.10687500000000	0.00000000000000	0.14740600000000	-4.06031400000000	21.35270900000000	4.92251500000000	0.00000000000000	0.00000000000000	0.00000000000000	0.00000000000000	25.37248500000000	0.00000000000000	0.00000000000000	1.70442000000000	0.00000000000000	
14.21995200000000	-46.23278600000000	795.96939199999997	59.45876200000000	0.10624500000000	0.00000000000000	0.14733100000000	-4.92800600000000	27.16987200000000	6.07184100000000	0.30481500000000	0.00000000000000	-0.04723400000000	0.00000000000000	25.27128400000000	0.00000000000000	0.00000000000000	3.73148300000000	0.00000000000000	
14.22161200000000	-46.43056700000000	794.01930800000002	59.34786500000000	0.10563400000000	0.00000000000000	0.14725200000000	-5.77857900000000	33.34207400000000	7.23427800000000	0.31267900000000	0.00000000000000	-0.04742600000000	0.00000000000000	25.17073400000000	0.00000000000000	0.00000000000000	4.51872300000000	0.00000000000000	
14.22328000000000	-46.63633500000000	791.97587299999998	59.22073300000000	0.10504200000000	0.00000000000000	0.14716800000000	-6.58066400000000	39.74245700000000	8.37438900000000	0.31981500000000	0.00000000000000	-0.04761700000000	0.00000000000000	25.07104600000000	0.00000000000000	0.00000000000000	5.30919200000000	0.00000000000000	
14.22494400000000	-46.85075200000000	789.83765000000005	59.07702400000000	0.10446700000000	0.00000000000000	0.14708000000000	-7.30572900000000	46.24772200000000	9.45921900000000	0.32631800000000	0.00000000000000	-0.04780900000000	0.00000000000000	24.97242200000000	0.00000000000000	0.00000000000000	6.08014900000000	0.00000000000000	
14.22661600000000	-47.07445800000000	787.60317999999995	58.91640800000000	0.10391100000000	0.00000000000000	0.14698700000000	-7.92994000000000	52.74736300000000	10.46052100000000	0.33226300000000	0.00000000000000	-0.04800300000000	0.00000000000000	24.87505400000000	0.00000000000000	0.00000000000000	6.81126200000000	0.00000000000000	
14.22828100000000	-47.30807000000000	785.27098200000000	58.73857100000000	0.10337200000000	0.00000000000000	0.14689000000000	-8.43543100000000	59.15074000000000	11.35632800000000	0.33771600000000	0.00000000000000	-0.04820000000000	0.00000000000000	24.77912300000000	0.00000000000000	0.00000000000000	7.48585600000000	0.00000000000000	
14.22994900000000	-47.55217000000000	782.83955300000002	58.54321200000000	0.10284900000000	0.00000000000000	0.14678900000000	-8.81092000000000	65.39152199999999	12.13180100000000	0.34272700000000	0.00000000000000	-0.04840000000000	0.00000000000000	24.68479700000000	0.00000000000000	0.00000000000000	8.09169000000000	0.00000000000000	
14.23161300000000	-47.80730900000000	780.30737099999999	58.33004700000000	0.10234300000000	0.00000000000000	0.14668300000000	-9.05169000000000	71.42944300000001	12.77936700000000	0.34734200000000	0.00000000000000	-0.04860500000000	0.00000000000000	24.59223000000000	0.00000000000000	0.00000000000000	8.62125200000000	0.00000000000000	
14.23329400000000	-48.07399900000000	777.67289400000004	58.09880900000000	0.10185300000000	0.00000000000000	0.14657200000000	-9.15904500000000	77.24962600000001	13.29823000000000	0.35159800000000	0.00000000000000	-0.04881400000000	0.00000000000000	24.50156300000000	0.00000000000000	0.00000000000000	9.07162300000000	0.00000000000000	
14.23495100000000	-48.35270500000000	774.93456000000003	57.84924700000000	0.10137700000000	0.00000000000000	0.14645700000000	-9.13936100000000	82.85992400000001	13.69342100000000	0.35552700000000	0.00000000000000	-0.04902700000000	0.00000000000000	24.41292300000000	0.00000000000000	0.00000000000000	9.44397400000000	0.00000000000000	
14.23661000000000	-48.64384900000000	772.09079199999996	57.58113200000000	0.10091500000000	0.00000000000000	0.14633800000000	-9.00288700000000	88.28686000000000	13.97452300000000	0.35915800000000	0.00000000000000	-0.04924600000000	0.00000000000000	24.32642200000000	0.00000000000000	0.00000000000000	9.74281400000000	0.00000000000000	
14.23827900000000	-48.94779600000000	769.13999699999999	57.29425200000000	0.10046600000000	0.00000000000000	0.14621500000000	-8.76243800000000	93.57072900000000	14.15425000000000	0.36251400000000	0.00000000000000	-0.04947000000000	0.00000000000000	24.24215400000000	0.00000000000000	0.00000000000000	9.97509500000000	0.00000000000000	
14.23994800000000	-49.26485900000000	766.08056799999997	56.98841500000000	0.10002900000000	0.00000000000000	0.14608700000000	-8.43210200000000	98.76042099999999	14.24701100000000	0.36561600000000	0.00000000000000	-0.04969800000000	0.00000000000000	24.16019700000000	0.00000000000000	0.00000000000000	10.14925800000000	0.00000000000000	
14.24161200000000	-49.59528600000000	762.91088800000000	56.66345400000000	0.09960300000000	0.00000000000000	0.14595400000000	-8.02607000000000	103.90843599999999	14.26758700000000	0.36848300000000	0.00000000000000	-0.04993300000000	0.00000000000000	24.08061300000000	0.00000000000000	0.00000000000000	10.27433600000000	0.00000000000000	
14.24329400000000	-49.93926200000000	759.62933199999998	56.31922200000000	0.09918700000000	0.00000000000000	0.14581800000000	-7.55765500000000	109.06644700000000	14.23000600000000	0.37113000000000	0.00000000000000	-0.05017200000000	0.00000000000000	24.00344600000000	0.00000000000000	0.00000000000000	10.35915600000000	0.00000000000000	
14.24494900000000	-50.29690200000000	756.23426800000004	55.95559600000000	0.09877900000000	0.00000000000000	0.14567700000000	-7.03855100000000	114.28167999999999	14.14666300000000	0.37357400000000	0.00000000000000	-0.05041600000000	0.00000000000000	23.92871900000000	0.00000000000000	0.00000000000000	10.41169600000000	0.00000000000000	
14.24661200000000	-50.66824700000000	752.72406100000001	55.57247800000000	0.09837900000000	0.00000000000000	0.14553200000000	-6.47834400000000	119.59422800000000	14.02772000000000	0.37582700000000	0.00000000000000	-0.05066600000000	0.00000000000000	23.85644100000000	0.00000000000000	0.00000000000000	10.43862600000000	0.00000000000000	
14.24829500000000	-51.05326200000000	749.09707700000001	55.16979400000000	0.09798500000000	0.00000000000000	0.14538300000000	-5.88426400000000	125.03536000000000	13.88078200000000	0.37790000000000	0.00000000000000	-0.05092000000000	0.00000000000000	23.78659800000000	0.00000000000000	0.00000000000000	10.44503000000000	0.00000000000000	
14.24994300000000	-51.45183100000000	745.35168499999997	54.74749800000000	0.09759500000000	0.00000000000000	0.14523000000000	-5.26116200000000	130.62675800000000	13.71081400000000	0.37980400000000	0.00000000000000	-0.05117900000000	0.00000000000000	23.71915800000000	0.00000000000000	0.00000000000000	10.43430300000000	0.00000000000000	
14.25161700000000	-51.86375100000000	741.48626100000001	54.30557000000000	0.09721000000000	0.00000000000000	0.14507400000000	-4.61166800000000	136.38058000000001	13.52027600000000	0.38154900000000	0.00000000000000	-0.05144300000000	0.00000000000000	23.65407000000000	0.00000000000000	0.00000000000000	10.40819400000000	0.00000000000000	
14.25328200000000	-52.28873300000000	737.49919100000000	53.84402000000000	0.09682600000000	0.00000000000000	0.14491300000000	-3.93648600000000	142.30019100000001	13.30942000000000	0.38314400000000	0.00000000000000	-0.05171100000000	0.00000000000000	23.59126100000000	0.00000000000000	0.00000000000000	10.36697900000000	0.00000000000000	
14.25494600000000	-52.72639900000000	733.38887599999998	53.36288400000000	0.09644300000000	0.00000000000000	0.14474900000000	-3.23477900000000	148.38138599999999	13.07669100000000	0.38459600000000	0.00000000000000	-0.05198300000000	0.00000000000000	23.53064100000000	0.00000000000000	0.00000000000000	10.30970500000000	0.00000000000000	
14.25663100000000	-53.17627600000000	729.15373499999998	52.86223100000000	0.09606000000000	0.00000000000000	0.14458100000000	-2.50460200000000	154.61391699999999	12.81919800000000	0.38591300000000	0.00000000000000	-0.05225900000000	0.00000000000000	23.47209700000000	0.00000000000000	0.00000000000000	10.23449700000000	0.00000000000000	
14.25828400000000	-53.63779600000000	724.79221199999995	52.34215700000000	0.09567500000000	0.00000000000000	0.14441000000000	-1.74333000000000	160.98316600000001	12.53319200000000	0.38710300000000	0.00000000000000	-0.05254000000000	0.00000000000000	23.41549700000000	0.00000000000000	0.00000000000000	10.13887300000000	0.00000000000000	
14.25995200000000	-54.11029400000000	720.30277899999999	51.80279200000000	0.09528600000000	0.00000000000000	0.14423500000000	-0.94807200000000	167.47179700000001	12.21452400000000	0.38817000000000	0.00000000000000	-0.05282300000000	0.00000000000000	23.36069000000000	0.00000000000000	0.00000000000000	10.02006100000000	0.00000000000000	
14.26161100000000	-54.59300800000000	715.68394000000001	51.24429700000000	0.09489300000000	0.00000000000000	0.14405800000000	-0.11601700000000	174.06128699999999	11.85905300000000	0.38912200000000	0.00000000000000	-0.05311000000000	0.00000000000000	23.30750400000000	0.00000000000000	0.00000000000000	9.87527100000000	0.00000000000000	
14.26327900000000	-55.08507400000000	710.93424300000004	50.66686400000000	0.09449500000000	0.00000000000000	0.14387700000000	0.75527800000000	180.73322899999999	11.46297600000000	0.38996300000000	0.00000000000000	-0.05340000000000	0.00000000000000	23.25574800000000	0.00000000000000	0.00000000000000	9.70193100000000	0.00000000000000	
14.26494500000000	-55.58553100000000	706.05227800000000	50.07071900000000	0.09408800000000	0.00000000000000	0.14369300000000	1.66768500000000	187.47037499999999	11.02307800000000	0.39069900000000	0.00000000000000	-0.05369200000000	0.00000000000000	23.20521100000000	0.00000000000000	0.00000000000000	9.49786400000000	0.00000000000000	
14.26661400000000	-56.09331700000000	701.03669300000001	49.45612300000000	0.09367400000000	0.00000000000000	0.14350600000000	2.62237200000000	194.25737899999999	10.53690200000000	0.39133500000000	0.00000000000000	-0.05398700000000	0.00000000000000	23.15566400000000	0.00000000000000	0.00000000000000	9.26140900000000	0.00000000000000	
14.26827700000000	-56.60727200000000	695.88619700000004	48.82336600000000	0.09324900000000	0.00000000000000	0.14331600000000	3.61974800000000	201.08124599999999	10.00282600000000	0.39187500000000	0.00000000000000	-0.05428400000000	0.00000000000000	23.10685800000000	0.00000000000000	0.00000000000000	8.99148400000000	0.00000000000000	
14.26995100000000	-57.12613700000000	690.59957099999997	48.17277700000000	0.09281300000000	0.00000000000000	0.14312400000000	4.65946600000000	207.93152699999999	9.42008500000000	0.39232400000000	0.00000000000000	-0.05458300000000	0.00000000000000	23.05852900000000	0.00000000000000	0.00000000000000	8.68760200000000	0.00000000000000	
14.27161800000000	-57.64855700000000	685.17567799999995	47.50471500000000	0.09236600000000	0.00000000000000	0.14292900000000	5.74048200000000	214.80027699999999	8.78872100000000	0.39268500000000	0.00000000000000	-0.05488300000000	0.00000000000000	23.01039100000000	0.00000000000000	0.00000000000000	8.34984300000000	0.00000000000000	
14.27328100000000	-58.17308500000000	679.61347100000000	46.81957600000000	0.09190500000000	0.00000000000000	0.14273200000000	6.86114200000000	221.68184199999999	8.10949800000000	0.39296300000000	0.00000000000000	-0.05518400000000	0.00000000000000	22.96214700000000	0.00000000000000	0.00000000000000	7.97879800000000	0.00000000000000	
14.27494400000000	-58.69818100000000	673.91200800000001	46.11778800000000	0.09142900000000	0.00000000000000	0.14253300000000	8.01929500000000	228.57252299999999	7.38378800000000	0.39316100000000	0.00000000000000	-0.05548600000000	0.00000000000000	22.91348000000000	0.00000000000000	0.00000000000000	7.57548900000000	0.00000000000000	
